<svg xmlns="http://www.w3.org/2000/svg" viewBox="0 0 100 100" width="100" height="100">
  <defs>
    <linearGradient id="grad" x1="0%" y1="0%" x2="100%" y2="100%">
      <stop offset="0%" style="stop-color:#4ECDC4"/>
      <stop offset="100%" style="stop-color:#FF6B6B"/>
    </linearGradient>
    <linearGradient id="grad2" x1="0%" y1="0%" x2="100%" y2="100%">
      <stop offset="0%" style="stop-color:#4ECDC4"/>
      <stop offset="100%" style="stop-color:#3CB5AC"/>
    </linearGradient>
  </defs>
  <!-- Outer circle with gradient -->
  <circle cx="50" cy="50" r="46" fill="url(#grad)"/>
  <!-- Inner hexagon (white, semi-transparent) -->
  <path d="M 50 22 L 72 35 L 72 60 L 50 73 L 28 60 L 28 35 Z" fill="white" opacity="0.92"/>
  <!-- Central node -->
  <circle cx="50" cy="50" r="9" fill="url(#grad2)"/>
  <!-- Outer nodes -->
  <circle cx="35" cy="40" r="5" fill="#FF6B6B"/>
  <circle cx="65" cy="40" r="5" fill="#FF6B6B"/>
  <circle cx="35" cy="60" r="5" fill="#4ECDC4"/>
  <circle cx="65" cy="60" r="5" fill="#4ECDC4"/>
  <circle cx="50" cy="28" r="4" fill="#FF6B6B"/>
  <circle cx="50" cy="72" r="4" fill="#4ECDC4"/>
  <!-- Connection lines -->
  <line x1="35" y1="40" x2="50" y2="50" stroke="#FF6B6B" stroke-width="2.5" opacity="0.7"/>
  <line x1="65" y1="40" x2="50" y2="50" stroke="#FF6B6B" stroke-width="2.5" opacity="0.7"/>
  <line x1="35" y1="60" x2="50" y2="50" stroke="#4ECDC4" stroke-width="2.5" opacity="0.7"/>
  <line x1="65" y1="60" x2="50" y2="50" stroke="#4ECDC4" stroke-width="2.5" opacity="0.7"/>
  <line x1="50" y1="28" x2="50" y2="50" stroke="#FF6B6B" stroke-width="2" opacity="0.5"/>
  <line x1="50" y1="72" x2="50" y2="50" stroke="#4ECDC4" stroke-width="2" opacity="0.5"/>
  <!-- Outer ring -->
  <circle cx="50" cy="50" r="46" fill="none" stroke="url(#grad)" stroke-width="2" opacity="0.3"/>
</svg>
